<?xml version="1.0" encoding="utf-8"?>
<!-- Generator: Adobe Illustrator 24.2.3, SVG Export Plug-In . SVG Version: 6.00 Build 0)  -->
<svg version="1.1" id="Layer_1" xmlns="http://www.w3.org/2000/svg" xmlns:xlink="http://www.w3.org/1999/xlink" x="0px" y="0px"
	 viewBox="0 0 64 64" style="enable-background:new 0 0 64 64;" xml:space="preserve">
<style type="text/css">
	.st0{fill:#087136;}
	.st1{fill:#FFFFFF;}
</style>
<desc>Current location marker.</desc>
<path class="st0" d="M28.9,2c-9.9,0-18,8.1-18,18c0,0.7,0.1,1.5,0.2,2.2C12.6,36.8,28.9,44.9,28.9,62c0-17.1,16.3-25.2,17.8-39.7
	C48,12.5,41.1,3.5,31.3,2.2C30.5,2.1,29.7,2,28.9,2z M28.9,26c-3.3,0-6-2.7-6-6s2.7-6,6-6s6,2.7,6,6S32.2,26,28.9,26z"/>
<circle class="st1" cx="28.8" cy="20.6" r="7"/>
</svg>
